<svg width="49" height="49" viewBox="0 0 49 49" fill="none" xmlns="http://www.w3.org/2000/svg">
  <g clip-path="url(#clip0_233:255)">
    <path
      d="M46.9103 19.6095L40.3018 6.27714C40.1625 5.99603 39.949 5.75816 39.6845 5.58928L31.7559 0.528246C30.8166 -0.0714161 29.6031 -0.0836718 28.6648 0.496979C26.1424 2.05741 23.4404 2.01032 20.4046 0.352613C19.4824 -0.150933 18.3536 -0.112912 17.4587 0.451913L16.0912 1.31493C16.0895 1.31589 16.0881 1.31695 16.0864 1.31792L9.32176 5.58696C9.05378 5.75613 8.83771 5.99565 8.69701 6.27956L2.08964 19.6095C1.80824 20.1772 2.0188 20.868 2.56877 21.1823L9.78073 25.3034V47.8425C9.78073 48.4807 10.3 49 10.9383 49H38.0617C38.7 49 39.2192 48.4807 39.2192 47.8425V40.1158C39.2192 39.7161 38.8952 39.392 38.4955 39.392C38.0958 39.392 37.7717 39.7161 37.7717 40.1158V47.5525H11.2283V16.2844C11.2283 15.8847 10.9042 15.5606 10.5045 15.5606C10.1048 15.5606 9.78073 15.8847 9.78073 16.2844V23.6363L3.49084 20.0421L9.99399 6.92235C10.0166 6.87671 10.0513 6.8382 10.0944 6.81109L15.9743 3.10031C16.3058 4.29799 16.8892 5.41934 17.6931 6.38793C17.8362 6.56047 18.0425 6.64945 18.2504 6.64945C18.4133 6.64945 18.5771 6.59483 18.7122 6.4826C19.0199 6.22725 19.0623 5.77099 18.807 5.46344C18.0393 4.53838 17.5114 3.44791 17.2641 2.28631L18.2311 1.67604C18.2612 1.65703 18.292 1.63937 18.3231 1.62277C18.5129 2.97968 19.1401 4.2316 20.1338 5.20501C21.3069 6.35425 22.8576 6.9872 24.5 6.9872C26.1291 6.9872 27.6706 6.36313 28.8406 5.23C29.8525 4.24993 30.4922 2.98035 30.6806 1.60347C30.7833 1.64024 30.8829 1.6882 30.9771 1.74832L31.7448 2.23835C31.046 5.63599 28.0103 8.14513 24.5 8.14513C23.2154 8.14513 21.9476 7.80737 20.8336 7.16853C20.4868 6.96964 20.0445 7.0895 19.8458 7.43623C19.6469 7.78296 19.7668 8.22532 20.1135 8.42411C21.4463 9.1885 22.9631 9.59256 24.5 9.59256C28.5113 9.59256 32.0044 6.85162 33.0354 3.06209L38.9056 6.80916C38.9481 6.83637 38.9824 6.87459 39.0048 6.91975L45.5091 20.0419L39.2192 23.6361V16.2842C39.2192 15.8845 38.8952 15.5604 38.4955 15.5604C38.0958 15.5604 37.7717 15.8845 37.7717 16.2842V37.2207C37.7717 37.6204 38.0958 37.9445 38.4955 37.9445C38.8952 37.9445 39.2192 37.6204 39.2192 37.2207V25.3034L46.4312 21.1823C46.9812 20.868 47.1917 20.1772 46.9103 19.6095ZM24.4999 5.53968C23.2386 5.53968 22.0476 5.0536 21.1467 4.17099C20.4447 3.48323 19.981 2.61471 19.7975 1.66899C23.1438 3.46817 26.2903 3.54238 29.1562 1.88902C28.6477 3.99932 26.7613 5.53968 24.4999 5.53968Z"
      fill="#024959" />
  </g>
  <defs>
    <clipPath id="clip0_233:255">
      <rect width="49" height="49" fill="white" />
    </clipPath>
  </defs>
</svg>