<svg width="59" height="59" viewBox="0 0 59 59" fill="none" xmlns="http://www.w3.org/2000/svg">
  <path
    d="M29.5 26.7343C21.1126 26.7343 14.2891 33.5582 14.2891 41.9452C14.2891 50.3321 21.1126 57.1561 29.5 57.1561C37.887 57.1561 44.711 50.3323 44.711 41.9453C44.711 33.5583 37.887 26.7343 29.5 26.7343ZM29.5 56.2344C21.6208 56.2344 15.2109 49.8245 15.2109 41.9453C15.2109 34.0661 21.6209 27.6562 29.5 27.6562C37.3791 27.6562 43.7891 34.0661 43.7891 41.9453C43.7891 49.8245 37.3793 56.2344 29.5 56.2344Z"
    fill="#024959" />
  <path
    d="M44.2499 43.3281C43.9951 43.3281 43.789 43.5343 43.789 43.789C43.789 51.6683 37.3791 58.0781 29.4999 58.0781C21.6207 58.0781 15.2108 51.6681 15.2108 43.789C15.2108 43.5343 15.0046 43.3281 14.7499 43.3281C14.4951 43.3281 14.2889 43.5343 14.2889 43.789C14.2889 52.176 21.1125 59 29.4999 59C37.8869 59 44.7109 52.1759 44.7109 43.789C44.7109 43.5343 44.5048 43.3281 44.2499 43.3281Z"
    fill="#024959" />
  <path
    d="M29.5 23.0469C27.7211 23.0469 26.2734 24.4944 26.2734 26.2734C26.2734 26.5281 26.4796 26.7343 26.7344 26.7343C26.9891 26.7343 27.1953 26.5281 27.1953 26.2734C27.1953 25.0023 28.2293 23.9687 29.5 23.9687C30.7711 23.9687 31.8047 25.0023 31.8047 26.2734C31.8047 26.5281 32.0107 26.7343 32.2656 26.7343C32.5204 26.7343 32.7265 26.5281 32.7265 26.2734C32.7265 24.4946 31.2788 23.0469 29.5 23.0469Z"
    fill="#024959" />
  <path
    d="M31.3437 19.3594C31.0889 19.3594 30.8828 19.5656 30.8828 19.8203V22.5859C30.8828 22.8406 31.0889 23.0469 31.3437 23.0469C31.5986 23.0469 31.8047 22.8406 31.8047 22.5859V19.8203C31.8046 19.5656 31.5986 19.3594 31.3437 19.3594Z"
    fill="#024959" />
  <path
    d="M29.5001 23.9687C28.7375 23.9687 28.1173 23.3484 28.1173 22.5859V18.8984C28.1173 18.1359 28.7375 17.5156 29.5001 17.5156C29.755 17.5156 29.961 17.3094 29.961 17.0547C29.961 16.8 29.755 16.5938 29.5001 16.5938C28.2295 16.5938 27.1954 17.6273 27.1954 18.8984V22.5859C27.1954 23.857 28.2295 24.8906 29.5001 24.8906C29.755 24.8906 29.961 24.6844 29.961 24.4297C29.961 24.1749 29.7548 23.9687 29.5001 23.9687Z"
    fill="#024959" />
  <path
    d="M29.5001 11.0624C28.2295 11.0624 27.1954 12.096 27.1954 13.3671V16.1327C27.1954 16.3875 27.4016 16.5937 27.6564 16.5937C27.9111 16.5937 28.1173 16.3876 28.1173 16.1327V13.3671C28.1173 12.6045 28.7375 11.9843 29.5001 11.9843C29.755 11.9843 29.961 11.7781 29.961 11.5234C29.961 11.2686 29.7548 11.0624 29.5001 11.0624Z"
    fill="#024959" />
  <path
    d="M31.3439 15.6718C31.089 15.6718 30.8829 15.878 30.8829 16.1327V17.0546C30.8829 17.817 30.2626 18.4374 29.5001 18.4374C29.2454 18.4374 29.0392 18.6436 29.0392 18.8983C29.0392 19.1531 29.2454 19.3593 29.5001 19.3593C30.7712 19.3593 31.8048 18.3258 31.8048 17.0546V16.1327C31.8047 15.878 31.5987 15.6718 31.3439 15.6718Z"
    fill="#024959" />
  <path
    d="M29.5001 0C25.1792 0 21.6642 3.51551 21.6642 7.83589C21.6642 12.1563 25.1792 15.6718 29.5001 15.6718C33.8213 15.6718 37.336 12.1563 37.336 7.83589C37.336 3.51551 33.8211 0 29.5001 0ZM29.5001 14.7499C25.6874 14.7499 22.5861 11.6485 22.5861 7.83589C22.5861 4.02324 25.6874 0.92187 29.5001 0.92187C33.3127 0.92187 36.4141 4.02324 36.4141 7.83589C36.4141 11.6485 33.3127 14.7499 29.5001 14.7499Z"
    fill="#024959" />
  <path
    d="M29.5 1.84373C26.196 1.84373 23.5078 4.53189 23.5078 7.83589C23.5078 11.1399 26.196 13.828 29.5 13.828C32.804 13.828 35.4921 11.1399 35.4921 7.83589C35.492 4.53189 32.8038 1.84373 29.5 1.84373ZM29.5 12.9062C26.7042 12.9062 24.4297 10.6312 24.4297 7.83589C24.4297 5.04054 26.7042 2.7656 29.5 2.7656C32.2962 2.7656 34.5702 5.04054 34.5702 7.83589C34.5702 10.6312 32.2962 12.9062 29.5 12.9062Z"
    fill="#024959" />
  <path
    d="M29.5001 30.8826C23.4002 30.8826 18.4375 35.8449 18.4375 41.9452C18.4375 48.0454 23.4002 53.0077 29.5001 53.0077C35.6003 53.0077 40.5626 48.0454 40.5626 41.9452C40.5626 35.8449 35.6002 30.8826 29.5001 30.8826ZM29.5001 52.086C23.9084 52.086 19.3594 47.5369 19.3594 41.9453C19.3594 36.3537 23.9084 31.8046 29.5001 31.8046C35.0917 31.8046 39.6407 36.3537 39.6407 41.9453C39.6407 47.5369 35.0917 52.086 29.5001 52.086Z"
    fill="#024959" />
  <path
    d="M28.3814 43.4118C28.1731 43.2641 27.8859 43.3163 27.7396 43.5244L24.5131 48.1337C24.3671 48.3425 24.4176 48.6296 24.6265 48.7755C24.707 48.8324 24.7989 48.8593 24.8903 48.8593C25.0358 48.8593 25.1788 48.7909 25.2683 48.6629L28.4948 44.0536C28.6407 43.8448 28.5902 43.5577 28.3814 43.4118Z"
    fill="#024959" />
  <path
    d="M29.1395 44.4472L28.4948 43.5253C28.349 43.3165 28.0622 43.2669 27.8529 43.411C27.6445 43.5568 27.5936 43.8448 27.7395 44.0527L28.384 44.9746C28.4737 45.1034 28.6169 45.1718 28.7622 45.1718C28.8536 45.1718 28.9454 45.1447 29.0261 45.089C29.2343 44.9431 29.2853 44.6551 29.1395 44.4472Z"
    fill="#024959" />
  <path
    d="M35.2958 38.8024C35.087 38.6548 34.7997 38.707 34.6531 38.915L28.2004 48.1337C28.0545 48.3425 28.105 48.6296 28.3139 48.7755C28.3944 48.8324 28.4863 48.8593 28.5777 48.8593C28.7232 48.8593 28.8662 48.7909 28.9556 48.6629L35.4092 39.4442C35.5551 39.2355 35.5046 38.9484 35.2958 38.8024Z"
    fill="#024959" />
  <path
    d="M38.6357 43.5245L35.4092 38.9152C35.2634 38.7071 34.9752 38.6549 34.7664 38.8025C34.5576 38.9484 34.5072 39.2355 34.6531 39.4443L37.8796 44.0537C37.9696 44.1815 38.1127 44.25 38.2577 44.25C38.3495 44.25 38.4413 44.2229 38.5223 44.1663C38.7312 44.0205 38.7817 43.7334 38.6357 43.5245Z"
    fill="#024959" />
  <path
    d="M25.8125 35.9532C24.5418 35.9532 23.5078 36.9867 23.5078 38.2578C23.5078 39.5289 24.5418 40.5625 25.8125 40.5625C27.0831 40.5625 28.1172 39.5289 28.1172 38.2578C28.1172 36.9867 27.0831 35.9532 25.8125 35.9532ZM25.8125 39.6405C25.0499 39.6405 24.4297 39.0202 24.4297 38.2577C24.4297 37.4951 25.0499 36.8749 25.8125 36.8749C26.5749 36.8749 27.1953 37.4951 27.1953 38.2577C27.1954 39.0202 26.5749 39.6405 25.8125 39.6405Z"
    fill="#024959" />
  <path
    d="M14.75 41.4844C14.4953 41.4844 14.2891 41.6906 14.2891 41.9453V43.789C14.2891 44.0438 14.4953 44.25 14.75 44.25C15.0048 44.25 15.2109 44.0438 15.2109 43.789V41.9453C15.2109 41.6906 15.0047 41.4844 14.75 41.4844Z"
    fill="#024959" />
  <path
    d="M44.25 41.4844C43.9952 41.4844 43.7891 41.6906 43.7891 41.9453V43.789C43.7891 44.0438 43.9952 44.25 44.25 44.25C44.5048 44.25 44.7109 44.0438 44.7109 43.789V41.9453C44.711 41.6906 44.5048 41.4844 44.25 41.4844Z"
    fill="#024959" />
</svg>