<svg width="59" height="59" viewBox="0 0 59 59" fill="none" xmlns="http://www.w3.org/2000/svg">
  <path
    d="M47.9442 25.8059C47.9462 25.6939 47.9454 25.8923 47.9454 22.6726C47.9454 17.1964 30.7491 15.05 18.3858 16.6208C17.9111 16.6808 17.575 17.114 17.635 17.5886C17.6951 18.0632 18.1294 18.4005 18.6029 18.3394C25.9508 17.4086 35.9256 17.7538 42.136 19.8581C45.1424 20.8757 46.2129 21.9797 46.2129 22.6727C46.2129 23.2815 45.446 24.0136 44.1086 24.6823C41.9096 25.7828 38.3605 26.6468 34.116 27.1156C20.8214 28.5756 7.42072 25.6046 7.42072 22.6725C7.42072 21.9136 8.6542 20.7229 12.1156 19.6592C13.0557 19.3704 14.1091 19.1082 15.2455 18.8808C15.7144 18.7872 16.0182 18.331 15.9246 17.8622C15.8299 17.3922 15.3737 17.0884 14.9048 17.183C11.7128 17.8196 5.68828 19.4284 5.68828 22.6725C5.81562 23.6677 4.5281 36.6569 12.0532 46.298C8.53597 46.8998 0.744019 48.5192 0.744019 52.0761C0.744019 58.8446 29.9328 60.8502 45.2036 57.2064C50.5845 55.9234 53.3136 54.1966 53.3136 52.0761C53.3136 48.4462 45.2114 46.8297 41.6336 46.2344C41.9905 45.7737 42.3358 45.2909 42.6673 44.7884C50.3775 44.3894 55.9363 40.9968 57.961 33.4816C59.8354 26.52 52.334 22.0807 47.9442 25.8059ZM56.2887 33.0301C55.6777 35.2974 53.8783 41.9683 43.7668 42.9697C43.8685 42.7872 43.9678 42.6024 44.066 42.4153C44.2877 41.9915 44.1249 41.4682 43.701 41.2465C43.2772 41.0236 42.7539 41.1876 42.531 41.6114C39.8581 46.7186 35.296 51.21 29.5102 51.21H24.1236C22.4385 51.21 20.7662 50.8174 19.1527 50.0412C18.7219 49.8333 18.2045 50.0147 17.9965 50.4454C17.7898 50.8773 17.9712 51.395 18.4019 51.6017C20.9027 52.806 22.9161 52.9684 25.0452 52.9547H29.5101C33.7109 52.9547 37.4614 50.8384 40.3169 47.7811C41.9257 48.0201 43.4295 48.3054 44.8015 48.6323C50.1535 49.9086 51.581 51.3983 51.581 52.0762C51.581 52.7553 50.1535 54.2452 44.8015 55.5214C34.9981 57.8587 19.0649 57.8601 9.25584 55.5214C3.90503 54.2452 2.47634 52.7553 2.47634 52.0762C2.47634 51.3983 3.90503 49.9084 9.25584 48.6323C10.5228 48.3297 11.9019 48.0641 13.372 47.8377C13.9899 48.4937 14.639 49.0965 15.3181 49.6416C15.4775 49.7697 15.6692 49.8322 15.8598 49.8322C16.674 49.8322 17.0403 48.8028 16.4027 48.2915C7.06327 40.7696 7.47604 25.7911 7.42072 25.4398C14.4346 30.5045 39.2476 30.4435 46.2129 25.441C46.184 25.7741 46.455 31.9179 43.9123 38.5449C43.7414 38.9919 43.9642 39.4932 44.4101 39.6641C44.8588 39.8355 45.3588 39.6117 45.5292 39.1663C46.7142 36.0791 47.4799 32.673 47.7894 29.1621C48.3346 27.0486 50.492 25.762 52.6125 26.2933C55.2197 26.9447 57.229 29.5476 56.2887 33.0301Z"
    fill="#024959" />
  <path
    d="M22.2521 7.35739C22.2521 6.17116 23.387 5.98482 23.387 4.10638C23.387 3.62793 22.9992 3.24016 22.5208 3.24016C22.0425 3.24016 21.6546 3.62793 21.6546 4.10638C21.6546 5.29249 20.5198 5.47883 20.5197 7.35739C20.5197 8.44255 20.9378 9.04154 21.2431 9.47886C21.4997 9.84634 21.6546 10.0682 21.6546 10.6084C21.6546 11.7944 20.5198 11.9807 20.5197 13.8591C20.5198 14.3374 20.9075 14.7253 21.3859 14.7253C21.8642 14.7253 22.2521 14.3375 22.2521 13.8591C22.2521 12.6743 23.387 12.4867 23.387 10.6084C23.387 9.52323 22.969 8.92435 22.6636 8.48715C22.407 8.11955 22.2521 7.89772 22.2521 7.35739Z"
    fill="#024959" />
  <path
    d="M32.3906 8.48715C32.134 8.11955 31.9791 7.89772 31.9791 7.35739C31.9791 6.17116 33.114 5.98482 33.114 4.10638C33.114 3.62793 32.7262 3.24016 32.2478 3.24016C31.7693 3.24016 31.3815 3.62793 31.3815 4.10638C31.3815 5.29249 30.2467 5.47883 30.2467 7.35739C30.2467 8.44255 30.6648 9.04154 30.9701 9.47874C31.2268 9.84634 31.3817 10.0682 31.3817 10.6084C31.3817 11.7944 30.2468 11.9807 30.2468 13.8591C30.2468 14.3375 30.6346 14.7253 31.113 14.7253C31.5915 14.7253 31.9793 14.3375 31.9793 13.8591C31.9793 12.6731 33.1141 12.4867 33.1141 10.6084C33.1141 9.52334 32.696 8.92447 32.3906 8.48715Z"
    fill="#024959" />
  <path
    d="M28.2507 0.86622C28.2507 0.387765 27.8628 0 27.3845 0C26.9061 0 26.5182 0.387765 26.5182 0.86622C26.5182 2.66815 25.3833 2.80482 25.3833 5.15768C25.3833 7.48035 26.5182 7.6781 26.5182 9.44926C26.5182 11.2345 25.3833 11.3971 25.3833 13.7403C25.3833 14.2186 25.7712 14.6065 26.2495 14.6065C26.7279 14.6065 27.1157 14.2187 27.1157 13.7403C27.1157 11.9384 28.2507 11.8019 28.2507 9.44926C28.2507 7.12647 27.1157 6.92872 27.1157 5.15768C27.1156 3.35541 28.2507 3.21932 28.2507 0.86622Z"
    fill="#024959" />
</svg>