<svg width="59" height="59" viewBox="0 0 59 59" fill="none" xmlns="http://www.w3.org/2000/svg">
  <g clip-path="url(#clip0_233:324)">
    <path
      d="M21.0247 22.7412C18.8067 22.7412 17.0022 24.5456 17.0022 26.7635V54.9776C17.0022 57.1955 18.8067 59 21.0247 59H37.9755C40.1936 59 41.998 57.1955 41.998 54.9776V33.5332C41.998 33.0558 41.6111 32.6689 41.1338 32.6689C40.6565 32.6689 40.2695 33.0558 40.2695 33.5332V54.9776C40.2695 56.2426 39.2405 57.2715 37.9755 57.2715H21.0247C19.7598 57.2715 18.7307 56.2424 18.7307 54.9776V26.7635C18.7307 25.4986 19.7598 24.4697 21.0247 24.4697H37.9755C39.2405 24.4697 40.2695 25.4987 40.2695 26.7635V29.5C40.2695 29.9774 40.6565 30.3643 41.1338 30.3643C41.6111 30.3643 41.998 29.9774 41.998 29.5V26.7635C41.998 24.5456 40.1936 22.7412 37.9755 22.7412H35.8375C35.4585 21.7084 35.4314 20.5835 35.7679 19.5222L35.9009 19.1029H36.1113C37.3044 19.1029 38.275 18.1322 38.275 16.9392V11.7015C38.275 9.20308 36.2424 7.17057 33.7441 7.17057H32.4234V5.3493C32.4234 5.08368 32.5236 4.82959 32.6986 4.63611C33.8791 4.52721 34.8066 3.53147 34.8066 2.32301C34.8065 1.04206 33.7644 0 32.4835 0H26.5166C25.2357 0 24.1936 1.04206 24.1936 2.32301C24.1936 3.53147 25.1211 4.52721 26.3016 4.63611C26.4767 4.82959 26.5768 5.08356 26.5768 5.3493V7.17057H25.2561C22.7577 7.17057 20.7252 9.20319 20.7252 11.7015V16.4165C20.7252 17.7901 21.7615 18.9263 23.0935 19.0842L23.2323 19.5223C23.5688 20.5836 23.5417 21.7085 23.1627 22.7413H21.0247V22.7412ZM26.5166 1.72852H32.4835C32.8113 1.72852 33.078 1.99517 33.078 2.32301C33.078 2.65085 32.8113 2.9175 32.4835 2.9175C31.0329 2.9175 28.0328 2.9175 26.5166 2.9175C26.1888 2.9175 25.9221 2.65085 25.9221 2.32301C25.9221 1.99517 26.1888 1.72852 26.5166 1.72852ZM28.2148 4.64602H30.7854C30.7259 4.87338 30.6949 5.10949 30.6949 5.3493V7.17057H28.3054V5.3493C28.3053 5.10961 28.2742 4.87338 28.2148 4.64602ZM25.2561 8.89909H33.744C35.1853 8.89909 36.3759 9.99278 36.5297 11.3937H22.4704C22.6242 9.99278 23.8149 8.89909 25.2561 8.89909ZM24.9118 19.1029H29.5425C30.0198 19.1029 30.4067 18.716 30.4067 18.2386C30.4067 17.7612 30.0198 17.3743 29.5425 17.3743C28.485 17.3743 24.0577 17.3743 23.4115 17.3743C22.8834 17.3743 22.4537 16.9446 22.4537 16.4165V13.1222H36.5465V16.9392C36.5465 17.1791 36.3513 17.3743 36.1113 17.3743C35.9131 17.3743 33.8355 17.3743 33.5758 17.3743C33.0985 17.3743 32.7115 17.7612 32.7115 18.2386C32.7115 18.716 33.0985 19.1029 33.5758 19.1029H34.0885C33.7295 20.3001 33.712 21.5537 34.0267 22.741H24.9735C25.2882 21.5537 25.2707 20.3001 24.9118 19.1029Z"
      fill="#024959" />
    <path
      d="M25.7859 43.6769C26.2632 43.6769 26.6502 43.2901 26.6502 42.8127V39.4249C26.6502 38.9842 26.3871 38.5905 25.9799 38.4218C25.5728 38.2533 25.1082 38.3457 24.7968 38.6572L20.2737 43.1804C20.0218 43.4322 19.8831 43.7671 19.8831 44.1234V55.1062C19.8831 55.6649 20.3375 56.1193 20.8961 56.1193H25.6372C26.1957 56.1193 26.6502 55.6649 26.6502 55.1062V46.846C26.6502 46.3686 26.2632 45.9817 25.7859 45.9817C25.3086 45.9817 24.9217 46.3686 24.9217 46.846V54.3906H21.6116V44.287L24.9217 40.9768V42.8127C24.9217 43.2901 25.3086 43.6769 25.7859 43.6769Z"
      fill="#024959" />
    <path
      d="M26.6502 26.635C26.6502 26.0764 26.1957 25.622 25.6372 25.622H20.8961C20.3375 25.622 19.8831 26.0764 19.8831 26.635V38.7163C19.8831 39.6816 21.0534 40.1672 21.7364 39.484L26.2594 34.9608C26.5113 34.709 26.6501 34.3743 26.6501 34.018V26.635H26.6502ZM24.9217 33.8541L21.6116 37.1643V27.3505H24.9217V33.8541Z"
      fill="#024959" />
  </g>
  <defs>
    <clipPath id="clip0_233:324">
      <rect width="59" height="59" fill="white" />
    </clipPath>
  </defs>
</svg>