<svg width="80" height="80" viewBox="0 0 80 80" fill="none" xmlns="http://www.w3.org/2000/svg">
  <g clip-path="url(#clip0)">
    <path
      d="M36.6657 76.6145C16.4497 76.6145 0 60.1654 0 39.9494C0 19.7333 16.4497 3.28363 36.6657 3.28363C43.6955 3.28363 50.5349 5.28674 56.4448 9.07996C57.605 9.82701 57.945 11.3736 57.1979 12.5369C56.4484 13.7002 54.9049 14.0365 53.7416 13.29C48.6417 10.0132 42.7355 8.28348 36.6657 8.28348C19.2059 8.28348 4.99984 22.4896 4.99984 39.9494C4.99984 57.4085 19.2059 71.6146 36.6657 71.6146C54.1249 71.6146 68.331 57.4085 68.331 39.9494C68.331 38.9057 68.281 37.8724 68.1845 36.8562C68.0515 35.4793 69.0579 34.2592 70.4312 34.1262C71.8111 33.9992 73.0275 34.9996 73.1612 36.3728C73.2741 37.5495 73.3308 38.7427 73.3308 39.9494C73.3308 60.1654 56.8818 76.6145 36.6657 76.6145Z"
      fill="#3EF3E2" fill-opacity="0.51" />
    <path
      d="M40.8319 48.2822C40.1922 48.2822 39.552 48.0387 39.0655 47.5492L24.066 32.5497C23.0895 31.5725 23.0895 29.9893 24.066 29.0128C25.0425 28.0363 26.6258 28.0363 27.6023 29.0128L40.8355 42.246L75.7307 7.35026C76.7078 6.37373 78.291 6.37373 79.2675 7.35026C80.2441 8.32679 80.2441 9.90999 79.2675 10.8865L42.6018 47.5523C42.1117 48.0387 41.4721 48.2822 40.8319 48.2822Z"
      fill="#3EF3E2" fill-opacity="0.51" />
  </g>
  <defs>
    <clipPath id="clip0">
      <rect width="80" height="80" fill="white" />
    </clipPath>
  </defs>
</svg>