<svg width="59" height="59" viewBox="0 0 59 59" fill="none" xmlns="http://www.w3.org/2000/svg">
<g clip-path="url(#clip0_233:162)">
<path d="M58.6582 0.332423C58.3433 0.0217519 57.8779 -0.0819589 57.4616 0.0671541L9.59871 17.133C7.93589 16.1162 5.82676 15.8781 3.89232 16.6791C0.68132 18.0092 -0.849105 21.7038 0.480927 24.915C3.61749 32.4868 8.14607 39.2645 13.9413 45.0598C19.7366 50.855 26.5142 55.3837 34.0861 58.5202C34.8724 58.8458 35.6875 59 36.49 59C38.9646 58.9999 41.3176 57.5335 42.3219 55.1087C42.9976 53.4772 42.9338 51.7212 42.2874 50.2135L58.9389 1.52544C59.082 1.10691 58.973 0.64321 58.6582 0.332423ZM16.8458 16.9957L21.9184 15.1873C22.5139 15.8217 22.8042 16.6952 22.6879 17.5786C22.5854 18.3564 22.1862 19.048 21.5638 19.5256C20.9414 20.0032 20.1708 20.2096 19.3923 20.1074C18.6146 20.005 17.9232 19.6059 17.4456 18.9834C17.0055 18.4099 16.7961 17.7102 16.8458 16.9957ZM40.1926 54.2265C39.3488 56.2637 37.0047 57.2345 34.9681 56.3905C20.2135 50.2791 8.72201 38.7875 2.61034 24.0329C2.2016 23.0461 2.2016 21.9593 2.61034 20.9725C3.01907 19.9857 3.78757 19.2172 4.77432 18.8085C5.76107 18.3998 6.84796 18.3998 7.83471 18.8085C8.82146 19.2172 9.58996 19.9857 9.99869 20.9725C12.6146 27.2881 16.392 32.9413 21.2258 37.7751C26.0597 42.609 31.7128 46.3862 38.0285 49.0023C40.0656 49.8459 41.0364 52.1897 40.1926 54.2265ZM50.4303 19.282C50.326 19.2795 50.2216 19.2735 50.1175 19.2599C49.3397 19.1574 48.6483 18.7583 48.1708 18.1359C47.6932 17.5135 47.4865 16.7422 47.5889 15.9645C47.8003 14.3588 49.2782 13.2247 50.8845 13.4358C51.38 13.501 51.8452 13.6933 52.2419 13.9856L50.4303 19.282ZM53.0079 11.745C52.4465 11.4393 51.8296 11.2357 51.1852 11.1508C48.3192 10.7725 45.6812 12.798 45.3039 15.6638C45.1211 17.0519 45.4899 18.4281 46.3423 19.539C47.1633 20.6089 48.3387 21.3079 49.6646 21.5211L47.3742 28.2184L44.7402 26.1972C44.2353 25.81 43.5118 25.905 43.1245 26.4099C42.7371 26.9149 42.8324 27.6382 43.3372 28.0256L46.5874 30.5195L40.6305 47.9377C40.1308 47.5033 39.5554 47.1399 38.9109 46.8729C26.6984 41.8142 17.187 32.3028 12.1286 20.0905C11.9527 19.6657 11.7342 19.2714 11.4822 18.9082L14.5681 17.8079C14.6758 18.7376 15.0327 19.6245 15.6173 20.3863C16.4696 21.4971 17.7036 22.2095 19.0917 22.3922C19.3242 22.4228 19.5561 22.438 19.7868 22.438C20.9331 22.438 22.0422 22.0635 22.9669 21.354C24.0779 20.5015 24.7901 19.2677 24.973 17.8794C25.137 16.6331 24.8462 15.3987 24.1931 14.3761L38.5175 9.26872L39.0604 10.5794C39.2443 11.0232 39.6733 11.2911 40.1255 11.2911C40.2724 11.2911 40.4218 11.2627 40.566 11.203C41.154 10.9596 41.4332 10.2853 41.1897 9.69739L40.6912 8.49377L55.985 3.04066L53.0079 11.745Z" fill="#024959"/>
<path d="M12.4453 30.9146C12.4419 30.9091 12.4323 30.8945 12.4286 30.8892C12.0758 30.3599 11.3617 30.2179 10.8322 30.5704C10.3036 30.9223 10.1602 31.6366 10.5101 32.1661C10.7308 32.5051 11.1 32.6901 11.4771 32.6901C11.6906 32.6901 11.9064 32.6309 12.0991 32.507C12.6344 32.1628 12.7894 31.4498 12.4453 30.9146Z" fill="#024959"/>
<path d="M10.6927 28.0518C9.56976 26.0829 8.5603 24.0223 7.69248 21.9274C7.44899 21.3393 6.77452 21.0604 6.18694 21.3039C5.5989 21.5474 5.3198 22.2215 5.56341 22.8094C6.468 24.9933 7.52032 27.1412 8.69086 29.1935C8.90347 29.5662 9.2925 29.7752 9.69283 29.7752C9.88642 29.7752 10.0827 29.7264 10.2627 29.6237C10.8154 29.3083 11.0081 28.6046 10.6927 28.0518Z" fill="#024959"/>
<path d="M36.0606 14.7485C35.8322 14.7183 35.6002 14.7031 35.3712 14.7031C32.7534 14.7031 30.5213 16.6626 30.1793 19.2612C29.802 22.1268 31.8263 24.7652 34.692 25.1425C34.9204 25.1727 35.1523 25.1879 35.3814 25.1879C37.9991 25.1879 40.2312 23.2283 40.5733 20.6296C40.9504 17.764 38.9261 15.1258 36.0606 14.7485ZM38.2884 20.3288C38.0967 21.785 36.847 22.8831 35.3814 22.8831C35.2526 22.8831 35.1218 22.8746 34.9928 22.8575C33.387 22.646 32.2529 21.1677 32.4643 19.5619C32.656 18.1058 33.9056 17.0079 35.3712 17.0079C35.5 17.0079 35.6308 17.0164 35.7597 17.0335C37.3654 17.245 38.4998 18.7232 38.2884 20.3288Z" fill="#024959"/>
<path d="M35.7607 29.0821C35.5322 29.0519 35.3004 29.0367 35.0713 29.0367C32.4535 29.0367 30.2214 30.9963 29.8794 33.5949C29.6965 34.9831 30.0653 36.3593 30.9177 37.4702C31.7699 38.5811 33.0039 39.2935 34.3921 39.4763C34.6204 39.5064 34.8522 39.5215 35.0812 39.5215C37.699 39.5215 39.9312 37.562 40.2733 34.9632C40.6507 32.0978 38.6262 29.4596 35.7607 29.0821ZM37.9885 34.6626C37.7968 36.1188 36.547 37.2168 35.0814 37.2168C34.9527 37.2168 34.8219 37.2082 34.6931 37.1912C33.9152 37.0887 33.2238 36.6895 32.7462 36.0671C32.2686 35.4448 32.0619 34.6736 32.1644 33.8957C32.3561 32.4396 33.6058 31.3415 35.0713 31.3415C35.2001 31.3415 35.3309 31.35 35.4598 31.3671C37.0654 31.5785 38.1998 33.0569 37.9885 34.6626Z" fill="#024959"/>
<path d="M28.1603 24.3082L24.6185 23.8418C23.9878 23.7581 23.4087 24.2029 23.3256 24.8338C23.2424 25.4648 23.6866 26.0436 24.3175 26.1267L27.8593 26.593C27.9104 26.5998 27.9611 26.6031 28.0112 26.6031C28.5806 26.6031 29.0759 26.181 29.1521 25.6011C29.2355 24.9702 28.7914 24.3913 28.1603 24.3082Z" fill="#024959"/>
<path d="M26.3644 32.8121L26.0517 30.4355C25.9686 29.8045 25.3899 29.3602 24.7589 29.4435C24.1279 29.5266 23.6837 30.1053 23.7668 30.7363L24.0797 33.1129C24.156 33.6929 24.6511 34.115 25.2206 34.115C25.2707 34.115 25.3215 34.1117 25.3724 34.1049C26.0034 34.0218 26.4475 33.4431 26.3644 32.8121Z" fill="#024959"/>
</g>
<defs>
<clipPath id="clip0_233:162">
<rect width="59" height="59" fill="white"/>
</clipPath>
</defs>
</svg>
