<svg width="59" height="59" viewBox="0 0 59 59" fill="none" xmlns="http://www.w3.org/2000/svg">
  <g clip-path="url(#clip0)">
    <path
      d="M51.7067 27.4599C49.556 26.3903 47.0301 25.4961 44.247 24.8014L42.3419 16.9887C42.3293 16.939 42.3131 16.8929 42.2934 16.8478C42.1284 14.8032 40.5119 12.9143 37.7992 11.6232C37.3676 11.4167 36.8518 11.6002 36.6465 12.0317C36.4411 12.4633 36.6234 12.9802 37.055 13.1856C39.2934 14.2517 40.5777 15.7126 40.5777 17.1941C40.5777 20.1953 35.5053 22.7315 29.5007 22.7315C26.7695 22.7315 24.1364 22.2111 22.0861 21.2672C21.6522 21.0676 21.1376 21.2568 20.938 21.6918C20.7384 22.1257 20.9276 22.6392 21.3615 22.8399C21.8276 23.0545 22.3203 23.2496 22.835 23.4227C24.8254 24.0989 27.1354 24.4623 29.5008 24.4623C31.9654 24.4623 34.2466 24.0862 36.1805 23.4273C38.4674 22.6484 40.2674 21.475 41.3093 20.0592C43.3161 28.2894 43.8854 30.6241 43.9114 30.7305C43.863 30.5323 42.0178 22.9639 44.4744 33.0367C44.3312 35.6317 38.2216 38.4817 29.5007 38.4817C20.781 38.4817 14.6724 35.6329 14.5271 33.0378C14.5243 33.0495 17.0714 22.7624 17.729 20.1066C17.886 20.3154 18.0614 20.5208 18.2517 20.7204C18.4225 20.897 18.6487 20.9858 18.876 20.9858C19.0917 20.9858 19.3075 20.9062 19.476 20.7446C19.821 20.4134 19.8314 19.8665 19.5002 19.5215C18.786 18.7773 18.4237 17.9939 18.4237 17.1942C18.4237 14.1919 23.4961 11.6557 29.5007 11.6557C31.0504 11.6557 32.5527 11.8184 33.9638 12.138C34.4288 12.2441 34.8927 11.9522 34.9989 11.4861C35.105 11.02 34.8131 10.5572 34.347 10.4511C32.81 10.1015 31.1797 9.92491 29.5008 9.92491C22.3873 9.92491 16.8014 13.0577 16.6964 17.0776L14.7868 24.7877C12.6717 25.3162 10.6986 25.9623 8.91476 26.717C3.16618 29.1503 0 32.478 0 36.0873C0 40.8458 5.51546 45.0654 14.7521 47.3744C14.8225 47.3916 14.8929 47.4009 14.9632 47.4009C15.3508 47.4009 15.7028 47.1378 15.8021 46.7443C15.9174 46.2804 15.6359 45.8107 15.1721 45.6954C6.88157 43.622 1.73082 39.9412 1.73082 36.0873C1.73082 33.2592 4.59589 30.4253 9.5898 28.3102C11.0401 27.6964 12.6245 27.1564 14.3137 26.6983L13.7379 29.0257C10.2404 30.4889 6.46822 33.1737 7.43435 36.8419C7.53587 37.2307 7.88664 37.4892 8.27095 37.4892C8.8349 37.4892 9.25286 36.9537 9.1087 36.4046C8.50683 34.1034 11.083 32.2321 13.2072 31.1695C12.8118 32.8006 12.7941 32.7592 12.7941 32.943C12.7941 35.0292 14.6345 36.9226 17.9749 38.2727C24.372 40.86 34.6276 40.861 41.0268 38.2727C44.3672 36.9227 46.2076 35.0292 46.2076 32.943C46.2076 32.7569 46.1861 32.7836 45.8014 31.173C46.4452 31.4949 47.0314 31.84 47.5507 32.2034C47.9418 32.4769 48.4819 32.3811 48.7553 31.99C49.0299 31.5989 48.9342 31.0588 48.5431 30.7853C47.6258 30.1438 46.5273 29.5588 45.2811 29.0384L44.7123 26.7075C47.02 27.3329 49.12 28.106 50.9351 29.0095C51.3632 29.2229 51.8824 29.0486 52.0958 28.6207C52.309 28.1926 52.1348 27.6733 51.7067 27.4599Z"
      fill="#024959" />
    <path
      d="M54.7966 29.313C54.4113 29.0303 53.8701 29.1145 53.5874 29.501C53.3059 29.8875 53.3901 30.4288 53.7766 30.7103C60.3435 35.5037 56.958 40.6687 49.4115 43.8632C40.6001 47.5953 28.1211 48.1281 18.5008 46.4063C18.0301 46.322 17.5801 46.6348 17.4959 47.1044C17.4116 47.5751 17.7244 48.0251 18.1951 48.1093C28.0855 49.8833 40.9309 49.3343 50.0866 45.4578C60.9566 40.8539 61.072 33.8903 54.7966 29.313Z"
      fill="#024959" />
    <path
      d="M51.1702 33.5822C50.9499 33.1587 50.4272 32.9925 50.0025 33.213C49.579 33.4334 49.4129 33.956 49.6333 34.3795C51.1603 37.3269 47.3577 39.7257 44.2736 40.9588C33.9091 45.1041 16.719 43.7039 10.7864 38.7388C10.4195 38.4318 9.87376 38.4803 9.56678 38.8472C9.25979 39.2141 9.30831 39.7587 9.67521 40.0657C16.3459 45.6494 34.3006 46.8112 44.9163 42.5661C49.2987 40.8134 51.7125 38.3833 51.7125 35.7248C51.7125 34.9979 51.5302 34.2768 51.1702 33.5822Z"
      fill="#024959" />
  </g>
  <defs>
    <clipPath id="clip0">
      <rect width="59" height="59" fill="white" />
    </clipPath>
  </defs>
</svg>