<svg width="59" height="59" viewBox="0 0 59 59" fill="none" xmlns="http://www.w3.org/2000/svg">
  <path
    d="M53.0202 54.6149H5.97967C5.76821 54.6149 5.56542 54.5309 5.4159 54.3814C5.26637 54.2318 5.18237 54.029 5.18237 53.8176V26.1753C5.18237 25.9638 5.26637 25.761 5.4159 25.6115C5.56542 25.462 5.76821 25.378 5.97967 25.378C6.19113 25.378 6.39392 25.462 6.54344 25.6115C6.69297 25.761 6.77697 25.9638 6.77697 26.1753V53.0203H52.2229V26.1753C52.2229 25.9638 52.3069 25.761 52.4564 25.6115C52.606 25.462 52.8088 25.378 53.0202 25.378C53.2317 25.378 53.4345 25.462 53.584 25.6115C53.7335 25.761 53.8175 25.9638 53.8175 26.1753V53.8176C53.8175 54.029 53.7335 54.2318 53.584 54.3814C53.4345 54.5309 53.2317 54.6149 53.0202 54.6149Z"
    fill="#024959" />
  <path
    d="M56.6081 19.5338H2.39192C2.25793 19.5332 2.12626 19.4988 2.00907 19.4338C1.89188 19.3688 1.79296 19.2753 1.72145 19.162C1.64993 19.0487 1.60812 18.9192 1.59989 18.7855C1.59166 18.6517 1.61727 18.5181 1.67436 18.3968L8.05274 4.84279C8.1169 4.70651 8.21835 4.5912 8.34535 4.51021C8.47234 4.42921 8.61968 4.38585 8.7703 4.38514H50.2298C50.3811 4.3851 50.5293 4.42811 50.657 4.50914C50.7848 4.59018 50.8869 4.7059 50.9513 4.84279L57.3297 18.3968C57.3869 18.5184 57.4125 18.6524 57.4041 18.7865C57.3957 18.9205 57.3535 19.0503 57.2815 19.1637C57.2096 19.2771 57.1101 19.3705 56.9924 19.4352C56.8746 19.4999 56.7425 19.5338 56.6081 19.5338ZM3.64847 17.9392H55.3516L49.7235 5.97973H9.27659L3.64847 17.9392Z"
    fill="#024959" />
  <path
    d="M52.0898 27.0714C50.6806 27.0697 49.3296 26.5092 48.3333 25.5126C47.3369 24.5161 46.7765 23.165 46.775 21.7559V18.7365C46.775 18.525 46.859 18.3222 47.0085 18.1727C47.1581 18.0232 47.3609 17.9392 47.5723 17.9392H56.6081C56.8196 17.9392 57.0224 18.0232 57.1719 18.1727C57.3214 18.3222 57.4054 18.525 57.4054 18.7365V21.7559C57.4037 23.1651 56.8431 24.5162 55.8466 25.5127C54.8501 26.5092 53.4991 27.0697 52.0898 27.0714ZM48.3696 19.5338V21.7559C48.3624 22.249 48.4533 22.7387 48.637 23.1965C48.8208 23.6542 49.0937 24.0708 49.4399 24.4221C49.7861 24.7734 50.1987 25.0524 50.6537 25.2428C51.1087 25.4332 51.597 25.5313 52.0902 25.5313C52.5834 25.5313 53.0718 25.4332 53.5267 25.2428C53.9817 25.0524 54.3943 24.7734 54.7405 24.4221C55.0867 24.0708 55.3596 23.6542 55.5434 23.1965C55.7271 22.7387 55.818 22.249 55.8108 21.7559V19.5338H48.3696Z"
    fill="#024959" />
  <path
    d="M43.0541 27.0714C41.6448 27.0697 40.2938 26.5092 39.2973 25.5127C38.3008 24.5162 37.7402 23.1651 37.7385 21.7559V18.7365C37.7385 18.525 37.8225 18.3222 37.972 18.1727C38.1216 18.0232 38.3244 17.9392 38.5358 17.9392H47.5724C47.7838 17.9392 47.9866 18.0232 48.1362 18.1727C48.2857 18.3222 48.3697 18.525 48.3697 18.7365V21.7559C48.368 23.1651 47.8074 24.5162 46.8109 25.5127C45.8144 26.5092 44.4634 27.0697 43.0541 27.0714ZM39.3331 19.5338V21.7559C39.3331 22.7427 39.7252 23.6892 40.423 24.387C41.1208 25.0848 42.0672 25.4768 43.0541 25.4768C44.041 25.4768 44.9874 25.0848 45.6852 24.387C46.3831 23.6892 46.7751 22.7427 46.7751 21.7559V19.5338H39.3331Z"
    fill="#024959" />
  <path
    d="M34.0183 27.0714C32.6091 27.0697 31.258 26.5092 30.2615 25.5127C29.265 24.5162 28.7044 23.1651 28.7028 21.7559V18.7365C28.7028 18.525 28.7868 18.3222 28.9363 18.1727C29.0858 18.0232 29.2886 17.9392 29.5001 17.9392H38.5358C38.7473 17.9392 38.9501 18.0232 39.0996 18.1727C39.2491 18.3222 39.3331 18.525 39.3331 18.7365V21.7559C39.3317 23.165 38.7713 24.5161 37.7749 25.5126C36.7785 26.5092 35.4275 27.0697 34.0183 27.0714ZM30.2974 19.5338V21.7559C30.2901 22.249 30.381 22.7387 30.5648 23.1965C30.7485 23.6542 31.0214 24.0708 31.3676 24.4221C31.7138 24.7734 32.1264 25.0524 32.5814 25.2428C33.0364 25.4332 33.5247 25.5313 34.0179 25.5313C34.5112 25.5313 34.9995 25.4332 35.4545 25.2428C35.9095 25.0524 36.3221 24.7734 36.6683 24.4221C37.0145 24.0708 37.2874 23.6542 37.4711 23.1965C37.6549 22.7387 37.7458 22.249 37.7385 21.7559V19.5338H30.2974Z"
    fill="#024959" />
  <path
    d="M24.9818 27.0714C23.5726 27.0697 22.2216 26.5092 21.2252 25.5126C20.2289 24.5161 19.6685 23.165 19.667 21.7559V18.7365C19.667 18.525 19.751 18.3222 19.9005 18.1727C20.05 18.0232 20.2528 17.9392 20.4643 17.9392H29.5001C29.7115 17.9392 29.9143 18.0232 30.0638 18.1727C30.2134 18.3222 30.2974 18.525 30.2974 18.7365V21.7559C30.2957 23.1651 29.7351 24.5162 28.7386 25.5127C27.7421 26.5092 26.391 27.0697 24.9818 27.0714ZM21.2616 19.5338V21.7559C21.2544 22.249 21.3453 22.7387 21.529 23.1965C21.7127 23.6542 21.9856 24.0708 22.3319 24.4221C22.6781 24.7734 23.0907 25.0524 23.5456 25.2428C24.0006 25.4332 24.4889 25.5313 24.9822 25.5313C25.4754 25.5313 25.9637 25.4332 26.4187 25.2428C26.8737 25.0524 27.2863 24.7734 27.6325 24.4221C27.9787 24.0708 28.2516 23.6542 28.4353 23.1965C28.6191 22.7387 28.71 22.249 28.7028 21.7559V19.5338H21.2616Z"
    fill="#024959" />
  <path
    d="M15.946 27.0714C14.5367 27.0697 13.1856 26.5092 12.1891 25.5127C11.1926 24.5162 10.6321 23.1651 10.6304 21.7559V18.7365C10.6304 18.525 10.7144 18.3222 10.8639 18.1727C11.0134 18.0232 11.2162 17.9392 11.4277 17.9392H20.4642C20.6757 17.9392 20.8785 18.0232 21.028 18.1727C21.1775 18.3222 21.2615 18.525 21.2615 18.7365V21.7559C21.2598 23.1651 20.6993 24.5162 19.7028 25.5127C18.7063 26.5092 17.3552 27.0697 15.946 27.0714ZM12.225 19.5338V21.7559C12.225 22.7427 12.617 23.6892 13.3148 24.387C14.0126 25.0848 14.9591 25.4768 15.946 25.4768C16.9328 25.4768 17.8793 25.0848 18.5771 24.387C19.2749 23.6892 19.6669 22.7427 19.6669 21.7559V19.5338H12.225Z"
    fill="#024959" />
  <path
    d="M6.91006 27.0714C5.5008 27.0697 4.14974 26.5092 3.15324 25.5127C2.15675 24.5162 1.59617 23.1651 1.59448 21.7559V18.7365C1.59448 18.525 1.67848 18.3222 1.82801 18.1727C1.97753 18.0232 2.18032 17.9392 2.39178 17.9392H11.4276C11.639 17.9392 11.8418 18.0232 11.9913 18.1727C12.1408 18.3222 12.2248 18.525 12.2248 18.7365V21.7559C12.2234 23.165 11.663 24.5161 10.6666 25.5126C9.67023 26.5092 8.31925 27.0697 6.91006 27.0714ZM3.18908 19.5338V21.7559C3.18186 22.249 3.27276 22.7387 3.4565 23.1965C3.64023 23.6542 3.91314 24.0708 4.25934 24.4221C4.60555 24.7734 5.01814 25.0524 5.47313 25.2428C5.92813 25.4332 6.41643 25.5313 6.90967 25.5313C7.4029 25.5313 7.8912 25.4332 8.3462 25.2428C8.80119 25.0524 9.21378 24.7734 9.55999 24.4221C9.90619 24.0708 10.1791 23.6542 10.3628 23.1965C10.5466 22.7387 10.6375 22.249 10.6303 21.7559V19.5338H3.18908Z"
    fill="#024959" />
  <path
    d="M23.1216 54.6149H12.4913C12.2798 54.6149 12.077 54.5309 11.9275 54.3813C11.778 54.2318 11.694 54.029 11.694 53.8176V39.4662C11.694 39.2548 11.778 39.052 11.9275 38.9024C12.077 38.7529 12.2798 38.6689 12.4913 38.6689H23.1216C23.3331 38.6689 23.5359 38.7529 23.6854 38.9024C23.8349 39.052 23.9189 39.2548 23.9189 39.4662V53.8176C23.9189 54.029 23.8349 54.2318 23.6854 54.3813C23.5359 54.5309 23.3331 54.6149 23.1216 54.6149ZM13.2886 53.0203H22.3243V40.2635H13.2886V53.0203Z"
    fill="#024959" />
  <path
    d="M45.8111 45.0226H30.1314C29.9199 45.0226 29.7172 44.9386 29.5676 44.7891C29.4181 44.6395 29.3341 44.4367 29.3341 44.2253V34.0446C29.3343 33.7177 29.4642 33.4042 29.6953 33.173C29.9264 32.9417 30.2398 32.8116 30.5667 32.8112H45.3757C45.7026 32.8116 46.016 32.9417 46.2471 33.173C46.4782 33.4042 46.6081 33.7177 46.6083 34.0446V44.2253C46.6083 44.4367 46.5243 44.6395 46.3748 44.7891C46.2253 44.9386 46.0225 45.0226 45.8111 45.0226ZM30.9287 43.428H45.0138V34.4082H30.9287V43.428Z"
    fill="#024959" />
  <path
    d="M47.4057 45.0226H28.5369C28.3255 45.0226 28.1227 44.9386 27.9731 44.7891C27.8236 44.6395 27.7396 44.4367 27.7396 44.2253C27.7396 44.0138 27.8236 43.811 27.9731 43.6615C28.1227 43.512 28.3255 43.428 28.5369 43.428H47.4057C47.6172 43.428 47.82 43.512 47.9695 43.6615C48.119 43.811 48.203 44.0138 48.203 44.2253C48.203 44.4367 48.119 44.6395 47.9695 44.7891C47.82 44.9386 47.6172 45.0226 47.4057 45.0226Z"
    fill="#024959" />
  <path
    d="M47.574 19.5338C47.3933 19.5336 47.2181 19.472 47.077 19.3591C46.9359 19.2463 46.8373 19.0889 46.7974 18.9127L43.7198 5.35863C43.6785 5.15451 43.7187 4.94231 43.8318 4.76743C43.9449 4.59255 44.1219 4.46886 44.325 4.42282C44.5281 4.37679 44.7412 4.41205 44.9187 4.52107C45.0961 4.6301 45.2239 4.80423 45.2746 5.00623L48.3521 18.5603C48.3786 18.677 48.3784 18.7983 48.3516 18.9149C48.3248 19.0316 48.2721 19.1408 48.1973 19.2343C48.1226 19.3278 48.0277 19.4033 47.9198 19.4551C47.8119 19.507 47.6937 19.5339 47.574 19.5338Z"
    fill="#024959" />
  <path
    d="M38.3651 19.5338C38.1781 19.5335 37.9971 19.4675 37.8538 19.3472C37.7106 19.227 37.6141 19.0602 37.5814 18.876L35.1648 5.32197C35.1305 5.11494 35.1791 4.90273 35.3003 4.73136C35.4214 4.55999 35.6052 4.44329 35.8118 4.40656C36.0184 4.36984 36.2312 4.41605 36.404 4.53518C36.5767 4.6543 36.6956 4.83674 36.7347 5.04291L39.1505 18.597C39.1874 18.805 39.1401 19.0192 39.0192 19.1925C38.8983 19.3658 38.7135 19.4839 38.5055 19.521C38.4592 19.5296 38.4122 19.5339 38.3651 19.5338Z"
    fill="#024959" />
  <path
    d="M11.4261 19.5338C11.3063 19.5339 11.1881 19.507 11.0802 19.4551C10.9723 19.4033 10.8774 19.3278 10.8027 19.2343C10.7279 19.1408 10.6752 19.0316 10.6484 18.9149C10.6216 18.7983 10.6214 18.677 10.6479 18.5603L13.7255 5.00622C13.7465 4.90208 13.7882 4.8032 13.8481 4.7154C13.9079 4.6276 13.9847 4.55265 14.0739 4.49495C14.1631 4.43725 14.263 4.39797 14.3676 4.37941C14.4722 4.36085 14.5795 4.36339 14.6831 4.38688C14.7868 4.41037 14.8846 4.45433 14.971 4.51618C15.0574 4.57804 15.1306 4.65654 15.1862 4.74707C15.2418 4.8376 15.2788 4.93834 15.2949 5.04336C15.3111 5.14838 15.3061 5.25557 15.2802 5.35862L12.2026 18.9127C12.1627 19.0889 12.0641 19.2463 11.923 19.3591C11.7819 19.472 11.6067 19.5335 11.4261 19.5338Z"
    fill="#024959" />
  <path
    d="M20.6347 19.5338C20.5877 19.5339 20.5407 19.5296 20.4944 19.521C20.2864 19.4839 20.1016 19.3658 19.9807 19.1925C19.8597 19.0192 19.8125 18.805 19.8494 18.597L22.2652 5.04291C22.3043 4.83674 22.4232 4.6543 22.5959 4.53518C22.7687 4.41605 22.9815 4.36984 23.1881 4.40656C23.3947 4.44329 23.5785 4.55999 23.6996 4.73136C23.8207 4.90273 23.8694 5.11494 23.8351 5.32197L21.4185 18.876C21.3857 19.0602 21.2893 19.227 21.146 19.3472C21.0028 19.4675 20.8218 19.5335 20.6347 19.5338Z"
    fill="#024959" />
  <path
    d="M29.5001 19.5338C29.2886 19.5338 29.0858 19.4498 28.9363 19.3003C28.7868 19.1507 28.7028 18.9479 28.7028 18.7365V5.18243C28.7028 4.97098 28.7868 4.76818 28.9363 4.61866C29.0858 4.46914 29.2886 4.38514 29.5001 4.38514C29.7115 4.38514 29.9143 4.46914 30.0638 4.61866C30.2134 4.76818 30.2974 4.97098 30.2974 5.18243V18.7365C30.2974 18.9479 30.2134 19.1507 30.0638 19.3003C29.9143 19.4498 29.7115 19.5338 29.5001 19.5338Z"
    fill="#024959" />
</svg>